<?xml version="1.0" standalone="no"?>
<!DOCTYPE svg PUBLIC "-//W3C//DTD SVG 20010904//EN"
 "http://www.w3.org/TR/2001/REC-SVG-20010904/DTD/svg10.dtd">
<svg version="1.0" xmlns="http://www.w3.org/2000/svg"
 width="260.000000pt" height="260.000000pt" viewBox="0 0 260.000000 260.000000"
 preserveAspectRatio="xMidYMid meet">
<metadata>
Created by potrace 1.11, written by Peter Selinger 2001-2013
</metadata>
<g transform="translate(0.000000,260.000000) scale(0.100000,-0.100000)"
fill="#000000" stroke="none">
<path d="M1208 2258 c-10 -7 -21 -35 -25 -63 -7 -44 -13 -52 -43 -66 -34 -16
-35 -16 -77 12 -23 16 -50 29 -60 29 -21 0 -143 -118 -143 -139 0 -7 14 -33
32 -57 31 -44 31 -45 15 -79 -13 -27 -23 -35 -54 -40 -83 -14 -83 -14 -83
-119 0 -64 4 -97 13 -104 7 -6 35 -15 62 -19 45 -8 51 -12 63 -45 13 -34 13
-37 -17 -78 -17 -24 -31 -48 -31 -54 0 -13 131 -146 143 -146 5 0 28 14 52 30
50 34 56 35 94 15 23 -11 29 -23 35 -61 7 -56 20 -74 52 -74 l24 0 0 -270 0
-270 -140 0 -140 0 0 -79 0 -80 -37 -3 c-35 -3 -38 -6 -38 -33 0 -27 3 -30 38
-33 37 -3 37 -4 37 -47 0 -42 -1 -44 -31 -47 -18 -2 -37 -11 -43 -20 -16 -26
4 -52 43 -56 29 -3 31 -6 31 -41 l0 -39 163 -40 162 -41 120 30 c66 17 137 35
158 40 l37 10 0 55 c0 35 4 56 13 58 54 15 72 24 75 39 6 28 -17 47 -54 47
-33 0 -34 1 -34 39 0 41 11 51 55 51 28 0 43 34 25 55 -6 8 -26 15 -43 17 -31
3 -32 4 -35 60 l-3 57 -137 3 -137 3 0 264 0 265 32 8 c33 9 37 16 48 84 5 35
11 42 41 53 32 12 38 10 83 -18 26 -17 51 -31 55 -31 17 0 136 125 136 142 0
11 -13 38 -29 61 -28 41 -28 44 -14 78 13 33 18 37 63 43 72 10 80 22 80 120
0 97 -9 110 -81 120 -40 6 -48 11 -62 41 -16 35 -16 35 14 79 23 32 30 51 26
68 -9 33 -110 128 -136 128 -12 0 -39 -13 -62 -29 -40 -29 -41 -30 -75 -14
-27 13 -35 24 -39 52 -3 20 -11 47 -18 61 -12 23 -18 25 -97 28 -58 2 -91 -1
-102 -10z m137 -123 c8 -52 10 -53 97 -90 l68 -28 42 28 c30 20 46 25 57 18
33 -21 34 -38 6 -81 l-28 -42 28 -68 c33 -78 42 -87 96 -96 39 -6 40 -7 37
-43 -3 -36 -5 -38 -47 -45 -51 -9 -51 -9 -87 -100 l-27 -67 27 -35 c32 -42 32
-47 3 -74 l-23 -22 -34 25 c-42 31 -54 31 -135 -1 -65 -26 -69 -30 -81 -96 -6
-35 -9 -38 -40 -38 -37 0 -39 3 -49 63 -6 36 -11 41 -70 68 -79 36 -99 36
-143 3 l-34 -27 -25 26 -25 25 26 38 c33 49 33 58 -3 138 -22 48 -36 67 -53
70 -81 17 -78 15 -78 51 0 32 2 34 44 40 52 8 65 21 94 94 28 68 28 80 -3 121
l-25 34 22 23 c27 29 32 29 74 -3 l35 -27 69 27 c74 30 100 54 100 97 0 33 7
39 46 39 31 0 33 -2 39 -45z"/>
</g>
</svg>
